<mxfile host="app.diagrams.net" modified="2024-07-10T07:33:39.927Z" agent="Mozilla/5.0 (Macintosh; Intel Mac OS X 10_15_7) AppleWebKit/537.36 (KHTML, like Gecko) Chrome/126.0.0.0 Safari/537.36" etag="K7zN8XU5jpzp1v0GQJHl" version="24.6.4" type="github">
  <diagram name="Page-1" id="2YBvvXClWsGukQMizWep">
    <mxGraphModel dx="716" dy="1585" grid="1" gridSize="10" guides="1" tooltips="1" connect="1" arrows="1" fold="1" page="1" pageScale="1" pageWidth="850" pageHeight="1100" math="0" shadow="0">
      <root>
        <mxCell id="0" />
        <mxCell id="1" parent="0" />
        <mxCell id="aM9ryv3xv72pqoxQDRHE-1" value="User" style="shape=umlLifeline;perimeter=lifelinePerimeter;whiteSpace=wrap;html=1;container=0;dropTarget=0;collapsible=0;recursiveResize=0;outlineConnect=0;portConstraint=eastwest;newEdgeStyle={&quot;edgeStyle&quot;:&quot;elbowEdgeStyle&quot;,&quot;elbow&quot;:&quot;vertical&quot;,&quot;curved&quot;:0,&quot;rounded&quot;:0};" parent="1" vertex="1">
          <mxGeometry x="40" y="40" width="100" height="300" as="geometry" />
        </mxCell>
        <mxCell id="aM9ryv3xv72pqoxQDRHE-2" value="" style="html=1;points=[];perimeter=orthogonalPerimeter;outlineConnect=0;targetShapes=umlLifeline;portConstraint=eastwest;newEdgeStyle={&quot;edgeStyle&quot;:&quot;elbowEdgeStyle&quot;,&quot;elbow&quot;:&quot;vertical&quot;,&quot;curved&quot;:0,&quot;rounded&quot;:0};" parent="aM9ryv3xv72pqoxQDRHE-1" vertex="1">
          <mxGeometry x="45" y="70" width="10" height="190" as="geometry" />
        </mxCell>
        <mxCell id="aM9ryv3xv72pqoxQDRHE-5" value="Discord" style="shape=umlLifeline;perimeter=lifelinePerimeter;whiteSpace=wrap;html=1;container=0;dropTarget=0;collapsible=0;recursiveResize=0;outlineConnect=0;portConstraint=eastwest;newEdgeStyle={&quot;edgeStyle&quot;:&quot;elbowEdgeStyle&quot;,&quot;elbow&quot;:&quot;vertical&quot;,&quot;curved&quot;:0,&quot;rounded&quot;:0};" parent="1" vertex="1">
          <mxGeometry x="220" y="40" width="100" height="300" as="geometry" />
        </mxCell>
        <mxCell id="aM9ryv3xv72pqoxQDRHE-6" value="" style="html=1;points=[];perimeter=orthogonalPerimeter;outlineConnect=0;targetShapes=umlLifeline;portConstraint=eastwest;newEdgeStyle={&quot;edgeStyle&quot;:&quot;elbowEdgeStyle&quot;,&quot;elbow&quot;:&quot;vertical&quot;,&quot;curved&quot;:0,&quot;rounded&quot;:0};" parent="aM9ryv3xv72pqoxQDRHE-5" vertex="1">
          <mxGeometry x="45" y="80" width="10" height="170" as="geometry" />
        </mxCell>
        <mxCell id="aM9ryv3xv72pqoxQDRHE-7" value="Message" style="html=1;verticalAlign=bottom;endArrow=block;edgeStyle=elbowEdgeStyle;elbow=vertical;curved=0;rounded=0;" parent="1" source="aM9ryv3xv72pqoxQDRHE-2" target="aM9ryv3xv72pqoxQDRHE-6" edge="1">
          <mxGeometry relative="1" as="geometry">
            <mxPoint x="195" y="130" as="sourcePoint" />
            <Array as="points">
              <mxPoint x="180" y="120" />
            </Array>
          </mxGeometry>
        </mxCell>
        <mxCell id="aM9ryv3xv72pqoxQDRHE-9" value="Response" style="html=1;verticalAlign=bottom;endArrow=block;edgeStyle=elbowEdgeStyle;elbow=vertical;curved=0;rounded=0;" parent="1" edge="1">
          <mxGeometry relative="1" as="geometry">
            <mxPoint x="265" y="280" as="sourcePoint" />
            <Array as="points">
              <mxPoint x="190" y="280" />
            </Array>
            <mxPoint x="100" y="280" as="targetPoint" />
          </mxGeometry>
        </mxCell>
        <mxCell id="PwLv-cstFyiSjL165JEo-1" value="Discord Bot" style="shape=umlLifeline;perimeter=lifelinePerimeter;whiteSpace=wrap;html=1;container=0;dropTarget=0;collapsible=0;recursiveResize=0;outlineConnect=0;portConstraint=eastwest;newEdgeStyle={&quot;edgeStyle&quot;:&quot;elbowEdgeStyle&quot;,&quot;elbow&quot;:&quot;vertical&quot;,&quot;curved&quot;:0,&quot;rounded&quot;:0};" parent="1" vertex="1">
          <mxGeometry x="390" y="40" width="100" height="300" as="geometry" />
        </mxCell>
        <mxCell id="PwLv-cstFyiSjL165JEo-2" value="" style="html=1;points=[];perimeter=orthogonalPerimeter;outlineConnect=0;targetShapes=umlLifeline;portConstraint=eastwest;newEdgeStyle={&quot;edgeStyle&quot;:&quot;elbowEdgeStyle&quot;,&quot;elbow&quot;:&quot;vertical&quot;,&quot;curved&quot;:0,&quot;rounded&quot;:0};" parent="PwLv-cstFyiSjL165JEo-1" vertex="1">
          <mxGeometry x="45" y="80" width="10" height="170" as="geometry" />
        </mxCell>
        <mxCell id="PwLv-cstFyiSjL165JEo-3" value="OpenAI API" style="shape=umlLifeline;perimeter=lifelinePerimeter;whiteSpace=wrap;html=1;container=0;dropTarget=0;collapsible=0;recursiveResize=0;outlineConnect=0;portConstraint=eastwest;newEdgeStyle={&quot;edgeStyle&quot;:&quot;elbowEdgeStyle&quot;,&quot;elbow&quot;:&quot;vertical&quot;,&quot;curved&quot;:0,&quot;rounded&quot;:0};" parent="1" vertex="1">
          <mxGeometry x="550" y="40" width="100" height="300" as="geometry" />
        </mxCell>
        <mxCell id="PwLv-cstFyiSjL165JEo-4" value="" style="html=1;points=[];perimeter=orthogonalPerimeter;outlineConnect=0;targetShapes=umlLifeline;portConstraint=eastwest;newEdgeStyle={&quot;edgeStyle&quot;:&quot;elbowEdgeStyle&quot;,&quot;elbow&quot;:&quot;vertical&quot;,&quot;curved&quot;:0,&quot;rounded&quot;:0};" parent="PwLv-cstFyiSjL165JEo-3" vertex="1">
          <mxGeometry x="45" y="80" width="10" height="170" as="geometry" />
        </mxCell>
        <mxCell id="PwLv-cstFyiSjL165JEo-5" value="Forward" style="html=1;verticalAlign=bottom;endArrow=block;edgeStyle=elbowEdgeStyle;elbow=vertical;curved=0;rounded=0;" parent="1" edge="1">
          <mxGeometry relative="1" as="geometry">
            <mxPoint x="278" y="160" as="sourcePoint" />
            <Array as="points">
              <mxPoint x="363" y="160" />
            </Array>
            <mxPoint x="438" y="160" as="targetPoint" />
            <mxPoint as="offset" />
          </mxGeometry>
        </mxCell>
        <mxCell id="PwLv-cstFyiSjL165JEo-6" value="Request" style="html=1;verticalAlign=bottom;endArrow=block;edgeStyle=elbowEdgeStyle;elbow=vertical;curved=0;rounded=0;" parent="1" edge="1">
          <mxGeometry relative="1" as="geometry">
            <mxPoint x="450" y="180" as="sourcePoint" />
            <Array as="points">
              <mxPoint x="535" y="180" />
            </Array>
            <mxPoint x="590" y="180" as="targetPoint" />
            <mxPoint as="offset" />
          </mxGeometry>
        </mxCell>
        <mxCell id="PwLv-cstFyiSjL165JEo-7" value="Response" style="html=1;verticalAlign=bottom;endArrow=block;edgeStyle=elbowEdgeStyle;elbow=horizontal;curved=0;rounded=0;" parent="1" edge="1">
          <mxGeometry relative="1" as="geometry">
            <mxPoint x="595" y="240" as="sourcePoint" />
            <Array as="points">
              <mxPoint x="520" y="240" />
            </Array>
            <mxPoint x="450" y="240" as="targetPoint" />
          </mxGeometry>
        </mxCell>
        <mxCell id="PwLv-cstFyiSjL165JEo-8" value="Forward" style="html=1;verticalAlign=bottom;endArrow=block;edgeStyle=elbowEdgeStyle;elbow=horizontal;curved=0;rounded=0;" parent="1" edge="1">
          <mxGeometry relative="1" as="geometry">
            <mxPoint x="435" y="260" as="sourcePoint" />
            <Array as="points">
              <mxPoint x="360" y="260" />
            </Array>
            <mxPoint x="280" y="260" as="targetPoint" />
          </mxGeometry>
        </mxCell>
        <mxCell id="cTnpzI1_pAw3alXZYRFU-1" value="Client" style="swimlane;whiteSpace=wrap" vertex="1" parent="1">
          <mxGeometry x="70" y="470" width="280" height="570" as="geometry">
            <mxRectangle x="70" y="360" width="70" height="30" as="alternateBounds" />
          </mxGeometry>
        </mxCell>
        <mxCell id="cTnpzI1_pAw3alXZYRFU-4" value="&#xa;&#xa;&#xa;&#xa;Discord Client" style="" vertex="1" parent="cTnpzI1_pAw3alXZYRFU-1">
          <mxGeometry x="60" y="110" width="150" height="130" as="geometry" />
        </mxCell>
        <mxCell id="cTnpzI1_pAw3alXZYRFU-36" value="" style="shape=image;verticalLabelPosition=bottom;labelBackgroundColor=default;verticalAlign=top;aspect=fixed;imageAspect=0;image=https://assets.mofoprod.net/network/images/discord.original.jpg;" vertex="1" parent="cTnpzI1_pAw3alXZYRFU-1">
          <mxGeometry x="100" y="120" width="70" height="70" as="geometry" />
        </mxCell>
        <mxCell id="cTnpzI1_pAw3alXZYRFU-39" value="User" style="" vertex="1" parent="cTnpzI1_pAw3alXZYRFU-1">
          <mxGeometry x="80" y="30" width="100" height="40" as="geometry" />
        </mxCell>
        <mxCell id="cTnpzI1_pAw3alXZYRFU-49" value="" style="endArrow=classic;startArrow=classic;html=1;rounded=0;fontSize=12;startSize=8;endSize=8;curved=1;entryX=0;entryY=0.5;entryDx=0;entryDy=0;fillColor=#f8cecc;strokeColor=#b85450;" edge="1" parent="cTnpzI1_pAw3alXZYRFU-1" target="cTnpzI1_pAw3alXZYRFU-47">
          <mxGeometry width="50" height="50" relative="1" as="geometry">
            <mxPoint x="210" y="174.5" as="sourcePoint" />
            <mxPoint x="340" y="174.5" as="targetPoint" />
            <Array as="points">
              <mxPoint x="280" y="174.5" />
            </Array>
          </mxGeometry>
        </mxCell>
        <mxCell id="cTnpzI1_pAw3alXZYRFU-60" value="" style="endArrow=classic;startArrow=classic;html=1;rounded=0;fontSize=12;startSize=8;endSize=8;curved=1;entryX=0.5;entryY=1;entryDx=0;entryDy=0;exitX=0.47;exitY=-0.018;exitDx=0;exitDy=0;exitPerimeter=0;strokeColor=#FF3333;" edge="1" parent="cTnpzI1_pAw3alXZYRFU-1" source="cTnpzI1_pAw3alXZYRFU-4" target="cTnpzI1_pAw3alXZYRFU-39">
          <mxGeometry width="50" height="50" relative="1" as="geometry">
            <mxPoint x="200" y="260" as="sourcePoint" />
            <mxPoint x="250" y="210" as="targetPoint" />
          </mxGeometry>
        </mxCell>
        <mxCell id="cTnpzI1_pAw3alXZYRFU-10" value="Server" style="swimlane;whiteSpace=wrap" vertex="1" parent="1">
          <mxGeometry x="350" y="470" width="400" height="570" as="geometry" />
        </mxCell>
        <mxCell id="cTnpzI1_pAw3alXZYRFU-13" value="&#xa;&#xa;&#xa;&#xa;OpenAI API" style="" vertex="1" parent="cTnpzI1_pAw3alXZYRFU-10">
          <mxGeometry x="60" y="270" width="160" height="80" as="geometry" />
        </mxCell>
        <mxCell id="cTnpzI1_pAw3alXZYRFU-14" value="&#xa;&#xa;&#xa;&#xa;&#xa;&#xa;DataBase" style="" vertex="1" parent="cTnpzI1_pAw3alXZYRFU-10">
          <mxGeometry x="60" y="390" width="160" height="130" as="geometry" />
        </mxCell>
        <mxCell id="cTnpzI1_pAw3alXZYRFU-47" value="&#xa;&#xa;&#xa;&#xa;Discord Server" style="" vertex="1" parent="cTnpzI1_pAw3alXZYRFU-10">
          <mxGeometry x="65" y="110" width="150" height="130" as="geometry" />
        </mxCell>
        <mxCell id="cTnpzI1_pAw3alXZYRFU-46" value="" style="shape=image;verticalLabelPosition=bottom;labelBackgroundColor=default;verticalAlign=top;aspect=fixed;imageAspect=0;image=https://static.vecteezy.com/system/resources/previews/006/892/625/original/discord-logo-icon-editorial-free-vector.jpg;" vertex="1" parent="cTnpzI1_pAw3alXZYRFU-10">
          <mxGeometry x="107.5" y="125" width="65" height="65" as="geometry" />
        </mxCell>
        <mxCell id="cTnpzI1_pAw3alXZYRFU-52" value="" style="shape=image;verticalLabelPosition=bottom;labelBackgroundColor=default;verticalAlign=top;aspect=fixed;imageAspect=0;image=https://miro.medium.com/v2/resize:fit:1400/1*fwSo2TJdFSHePC7UgKQR_w.png;" vertex="1" parent="cTnpzI1_pAw3alXZYRFU-10">
          <mxGeometry x="80" y="274.62" width="120" height="51.7" as="geometry" />
        </mxCell>
        <mxCell id="cTnpzI1_pAw3alXZYRFU-55" value="" style="shape=image;verticalLabelPosition=bottom;labelBackgroundColor=default;verticalAlign=top;aspect=fixed;imageAspect=0;image=https://i.namu.wiki/i/FRHZW_oFjYqe0Ocntyybc5_Dq7qPtkit5s4brmUj0L9uNjoPkc3EHUp8Oiypz9Xluq4kPNYxI9n6Z90Sk4D9xv2MeKdqNexYwBQdqy6IOFOVwbLkhilqvWKP3x-PYTrIVqP0hbh0Fa9QDqAcWu0cow.svg;" vertex="1" parent="cTnpzI1_pAw3alXZYRFU-10">
          <mxGeometry x="65" y="430" width="150" height="38" as="geometry" />
        </mxCell>
        <mxCell id="cTnpzI1_pAw3alXZYRFU-61" value="" style="endArrow=classic;startArrow=classic;html=1;rounded=0;fontSize=12;startSize=8;endSize=8;curved=1;exitX=0.5;exitY=0;exitDx=0;exitDy=0;strokeColor=#FF3333;" edge="1" parent="cTnpzI1_pAw3alXZYRFU-10" source="cTnpzI1_pAw3alXZYRFU-13">
          <mxGeometry width="50" height="50" relative="1" as="geometry">
            <mxPoint x="90" y="290" as="sourcePoint" />
            <mxPoint x="140" y="240" as="targetPoint" />
          </mxGeometry>
        </mxCell>
        <mxCell id="cTnpzI1_pAw3alXZYRFU-65" value="" style="endArrow=classic;startArrow=classic;html=1;rounded=0;fontSize=12;startSize=8;endSize=8;curved=1;exitX=0.5;exitY=0;exitDx=0;exitDy=0;strokeColor=#FF3333;" edge="1" parent="cTnpzI1_pAw3alXZYRFU-10" source="cTnpzI1_pAw3alXZYRFU-14">
          <mxGeometry width="50" height="50" relative="1" as="geometry">
            <mxPoint x="90" y="400" as="sourcePoint" />
            <mxPoint x="140" y="350" as="targetPoint" />
          </mxGeometry>
        </mxCell>
        <mxCell id="cTnpzI1_pAw3alXZYRFU-50" value="" style="edgeStyle=none;curved=1;rounded=0;orthogonalLoop=1;jettySize=auto;html=1;fontSize=12;startSize=8;endSize=8;strokeColor=#FF3333;" edge="1" parent="1" source="cTnpzI1_pAw3alXZYRFU-47" target="cTnpzI1_pAw3alXZYRFU-4">
          <mxGeometry relative="1" as="geometry" />
        </mxCell>
        <mxCell id="cTnpzI1_pAw3alXZYRFU-56" value="Sequence Diagram" style="text;html=1;align=center;verticalAlign=middle;whiteSpace=wrap;rounded=0;fontSize=16;" vertex="1" parent="1">
          <mxGeometry x="40" y="10" width="210" height="30" as="geometry" />
        </mxCell>
        <mxCell id="cTnpzI1_pAw3alXZYRFU-57" value="Component Diagram" style="text;html=1;align=center;verticalAlign=middle;whiteSpace=wrap;rounded=0;fontSize=16;" vertex="1" parent="1">
          <mxGeometry x="70" y="420" width="210" height="30" as="geometry" />
        </mxCell>
      </root>
    </mxGraphModel>
  </diagram>
</mxfile>
